<svg version="1.1" xmlns="http://www.w3.org/2000/svg" viewBox="0 0 960.8010246922045 686" width="960.8010246922045" height="686" filter="invert(93%) hue-rotate(180deg)">
  <!-- svg-source:excalidraw -->
  
  <defs>
    <style>
      @font-face {
        font-family: "Virgil";
        src: url("https://excalidraw.com/Virgil.woff2");
      }
      @font-face {
        font-family: "Cascadia";
        src: url("https://excalidraw.com/Cascadia.woff2");
      }
    </style>
  </defs>
  <rect x="0" y="0" width="960.8010246922045" height="686" fill="#ffffff"></rect><g stroke-linecap="round" transform="translate(32.138260281668295 511.3636363636364) rotate(0 44.18724062857365 61)"><path d="M1.92 -1.81 C30.93 1.36, 61.73 -1.62, 86.57 -1.25 M0.55 -0.21 C19.86 -0.58, 39.85 -0.69, 88.27 0.11 M89.22 0.49 C87.65 34.96, 88.32 69.86, 88.14 120.81 M87.47 0.43 C88.9 45.6, 87.71 91.54, 87.76 122.17 M87.99 121.53 C61.41 121.92, 37.35 119.38, 1.49 120.6 M88.07 121.3 C70.06 121.42, 52.64 121.14, 0.6 122.26 M1.84 120.2 C-1.2 90.35, 0.43 58.7, 0.02 -1.25 M-0.71 122.64 C0.05 91.23, -1.7 61.82, -0.5 0.95" stroke="#000000" stroke-width="1" fill="none"></path></g><g stroke-linecap="round" transform="translate(352 164) rotate(0 48.5 232.5)"><path d="M-1.81 -0.15 C29.38 -1.36, 54.6 -2.73, 95.75 -1.53 M-0.21 0.12 C32.65 -0.17, 65.24 -0.64, 97.11 -0.06 M97.22 -0.67 C97.93 166.99, 97.51 334.6, 96.45 465.71 M97.2 0.1 C97.59 150.99, 97.55 302.59, 97.08 464.95 M96.53 463.52 C66.78 464.75, 33.29 466.31, -1.4 463.07 M96.3 464.69 C71.08 464.98, 44.67 465.31, 0.26 464.6 M-0.82 464.43 C-0.62 327.32, -0.59 189.29, -0.57 -0.46 M0.29 465.38 C-1.37 295.42, -0.87 126.45, 0.44 -0.26" stroke="#000000" stroke-width="1" fill="none"></path></g><g stroke-linecap="round"><g transform="translate(353 214) rotate(0 48.30974552221596 -0.019282444808638388)"><path d="M-1.09 -0.09 C15.24 -0.32, 81.54 -0.09, 97.71 -0.26 M0.54 -1.18 C16.79 -0.73, 80.85 1, 97.13 1.14" stroke="#000000" stroke-width="1" fill="none"></path></g></g><g stroke-linecap="round"><g transform="translate(350.5 275) rotate(0 47.573123305663444 -0.18755487054190212)"><path d="M-0.09 0.71 C15.84 0.71, 80.74 -0.84, 96.74 -1.08 M-1.6 0.03 C14.06 0.24, 79.02 -0.14, 95.66 -0.11" stroke="#000000" stroke-width="1" fill="none"></path></g></g><g stroke-linecap="round"><g transform="translate(350.5 335) rotate(0 48.840386426541954 -0.7775394385861034)"><path d="M0.71 -0.26 C16.87 -0.42, 79.99 -0.97, 95.92 -1.08 M-0.38 -1.44 C16.24 -1.49, 81.54 -0.34, 98.06 -0.11" stroke="#000000" stroke-width="1" fill="none"></path></g></g><g transform="translate(37.916499164203515 531.7673939890243) rotate(0 40.5 13)"><text x="0" y="18" font-family="Virgil, Segoe UI Emoji" font-size="20px" fill="#000000" text-anchor="start" style="white-space: pre;" direction="ltr">Request</text></g><g stroke-linecap="round" transform="translate(10 10) rotate(0 470.40051234610223 333)"><path d="M0.44 -0.17 C210.26 -2.25, 420.63 -2.35, 940.71 0.09 M0.17 0.1 C275.85 -2.49, 552.12 -2.68, 940.75 -0.24 M940.08 0.34 C941.65 250.94, 940.7 502.17, 940.31 666.14 M940.72 -0.09 C941.02 192.17, 941.3 383.69, 941.1 665.72 M940.56 665.44 C748.87 662.82, 557.66 662.59, 0.48 666.21 M941.17 665.64 C695.99 667.15, 451.75 667.16, 0 665.75 M-0.57 666.51 C-1.04 499.31, -2.43 333.71, -0.4 0.76 M-0.14 665.74 C1.1 504.64, 1.18 342.93, -0.3 0.38" stroke="#000000" stroke-width="1" fill="none"></path></g><g stroke-linecap="round" transform="translate(599.0849956423845 142.45417388054264) rotate(0 74.5454545454545 36.81818181818181)"><path d="M-1.76 -0.67 C55.96 1.86, 113.92 2.89, 147.13 -0.72 M-0.54 -0.45 C48.02 0.58, 97.98 0.03, 149.6 -0.07 M149.38 1.45 C149.34 18.91, 146.97 38.49, 147.29 73.8 M148.68 -0.78 C148.04 15.16, 147.82 32.46, 150.06 73.49 M148.35 73.22 C105.37 74.35, 60.06 75.33, -0.82 75.07 M149.85 74.22 C109.63 74.98, 70.02 74.47, -0.58 74.38 M-1.19 72.43 C-0.56 54.97, 0.61 41.25, 0.85 1.73 M-0.15 73.72 C0.29 57.89, -1.46 40.54, 0.69 0.96" stroke="#000000" stroke-width="1" fill="none"></path></g><g transform="translate(604.0849956423845 153.27235569872445) rotate(0 69.5 26)"><text x="69.5" y="18" font-family="Virgil, Segoe UI Emoji" font-size="20px" fill="#000000" text-anchor="middle" style="white-space: pre;" direction="ltr">Map Storage </text><text x="69.5" y="44" font-family="Virgil, Segoe UI Emoji" font-size="20px" fill="#000000" text-anchor="middle" style="white-space: pre;" direction="ltr">1</text></g><g stroke-linecap="round" transform="translate(87.5389576762152 310.1935397840629) rotate(301.6405188446825 50 31)"><path d="M-0.42 -1.79 C31.42 2.02, 64.28 1.36, 99.74 1.83 M0.61 0.5 C33.16 -0.59, 66.99 0.48, 99.87 -0.25 M100.19 -1.15 C98.88 22.55, 100.77 47.3, 100.59 61.84 M100.54 0.6 C100.15 20.68, 98.97 40.81, 99.43 62.99 M101.94 61.21 C72.94 59.51, 46.7 61.27, -1.59 60.49 M99.31 61.92 C69.95 60.75, 42.39 62.2, 0.32 61.86 M0.87 62.18 C-0.73 48.1, -0.43 29.55, -0.43 -0.01 M-0.08 61.93 C0.62 46.85, 0.29 32.08, 0.55 0.21" stroke="#000000" stroke-width="1" fill="none"></path></g><g transform="translate(92.5389576762152 315.1935397840629) rotate(301.6405188446825 45 26)"><text x="45" y="18" font-family="Virgil, Segoe UI Emoji" font-size="20px" fill="#000000" text-anchor="middle" style="white-space: pre;" direction="ltr">chan </text><text x="45" y="44" font-family="Virgil, Segoe UI Emoji" font-size="20px" fill="#000000" text-anchor="middle" style="white-space: pre;" direction="ltr">resp</text></g><g stroke-linecap="round" transform="translate(120.56841237056051 523.5526695526695) rotate(0 52.72727272727275 49.09090909090912)"><path d="M-1.51 -0.17 C36.99 -0.59, 68.84 0.68, 103.6 -1.07 M-0.14 -0.48 C39.22 -1.33, 77.27 -0.25, 105.34 0.86 M105.44 -1.3 C105.62 30.81, 104.7 59.44, 107.17 97.01 M105.67 -0.9 C104.07 34.66, 104.64 68.51, 106.16 98.09 M104.36 97.27 C70.88 98.98, 38.77 96.82, -0.97 96.76 M105.87 98.77 C77.46 97.3, 49.13 97.76, 0.59 98.61 M-0.07 97.34 C1.41 62.29, 1.51 21.49, -0.43 -1.65 M-0.07 98.71 C-0.6 61.8, -0.89 27.29, 0.16 -0.85" stroke="#000000" stroke-width="1" fill="none"></path></g><g transform="translate(125.56841237056051 546.6435786435786) rotate(0 47.5 26)"><text x="47.5" y="18" font-family="Virgil, Segoe UI Emoji" font-size="20px" fill="#000000" text-anchor="middle" style="white-space: pre;" direction="ltr">listen </text><text x="47.5" y="44" font-family="Virgil, Segoe UI Emoji" font-size="20px" fill="#000000" text-anchor="middle" style="white-space: pre;" direction="ltr">chan resp</text></g><g stroke-linecap="round" transform="translate(600.0772270407938 217.7756551280978) rotate(0 74.5454545454545 36.81818181818181)"><path d="M1.93 -0.91 C49.31 -0.4, 101.11 -1.79, 148.29 1.66 M0.29 -0.85 C50.2 1.51, 101.7 1.67, 148.25 0.07 M147.7 1.31 C147.51 24.64, 149.12 52.4, 149.2 72.4 M148.24 0.47 C148.47 18.11, 149.52 34.87, 149.43 74.34 M147.93 74.71 C108.22 75.9, 67.99 73.14, 0.62 71.79 M148.32 73.37 C90.07 74.89, 29.97 75.5, -0.05 74.09 M-1.01 74.13 C-1.09 53.88, 0.44 34.09, 1.07 -0.33 M0.47 73.86 C0.98 56.03, 0.42 39.08, -0.86 -0.24" stroke="#000000" stroke-width="1" fill="none"></path></g><g transform="translate(605.0772270407938 228.59383694627962) rotate(0 69.5 26)"><text x="69.5" y="18" font-family="Virgil, Segoe UI Emoji" font-size="20px" fill="#000000" text-anchor="middle" style="white-space: pre;" direction="ltr">Map Storage </text><text x="69.5" y="44" font-family="Virgil, Segoe UI Emoji" font-size="20px" fill="#000000" text-anchor="middle" style="white-space: pre;" direction="ltr">2</text></g><g stroke-linecap="round" transform="translate(598.924506901111 292.70246420749703) rotate(0 74.54545454545462 36.81818181818181)"><path d="M0.19 -1.09 C45.37 2.03, 91.47 0.16, 150.72 2 M-0.7 0.32 C38.06 0.87, 75.36 -0.06, 149.1 -0.48 M149.44 -1.11 C147.78 22.66, 148.09 41.31, 147.79 72.17 M148.56 -0.28 C149.34 29.24, 149.28 58.3, 148.32 73.23 M150.97 74.62 C100.89 73.17, 50.97 71.82, -1.82 74.31 M149.82 73.07 C92.29 74.1, 36.38 74, -0.7 73.95 M-0.06 74.6 C-1.72 53.8, -0.37 35.23, 1.94 -0.74 M0.58 73.8 C-0.12 57.52, 0.32 40.3, 0.41 -0.43" stroke="#000000" stroke-width="1" fill="none"></path></g><g transform="translate(603.924506901111 303.52064602567884) rotate(0 69.5 26)"><text x="69.5" y="18" font-family="Virgil, Segoe UI Emoji" font-size="20px" fill="#000000" text-anchor="middle" style="white-space: pre;" direction="ltr">Map Storage </text><text x="69.5" y="44" font-family="Virgil, Segoe UI Emoji" font-size="20px" fill="#000000" text-anchor="middle" style="white-space: pre;" direction="ltr">3</text></g><g stroke-linecap="round"><g transform="translate(440.62049323058613 188.88878898434496) rotate(0 73.97790613765017 -5.606766004981587)"><path d="M-0.94 0.7 C24.01 -1.24, 123.77 -9.9, 148.9 -11.91 M0.77 0.02 C25.65 -1.73, 123.24 -8.89, 148.05 -10.55" stroke="#000000" stroke-width="1" fill="none"></path></g><g transform="translate(440.62049323058613 188.88878898434496) rotate(0 73.97790613765017 -5.606766004981587)"><path d="M121.82 2 C126.46 0.89, 133.69 -2.31, 148.86 -11.41 M120.7 1.06 C127.32 -1.9, 135.23 -5.85, 147.34 -9.56" stroke="#000000" stroke-width="1" fill="none"></path></g><g transform="translate(440.62049323058613 188.88878898434496) rotate(0 73.97790613765017 -5.606766004981587)"><path d="M120.37 -18.47 C125.31 -14.83, 132.88 -13.3, 148.86 -11.41 M119.25 -19.41 C126.13 -16.82, 134.43 -15.22, 147.34 -9.56" stroke="#000000" stroke-width="1" fill="none"></path></g></g><g stroke-linecap="round"><g transform="translate(440.62049323058613 243.06663554944902) rotate(0 76.16325553272713 3.3858261975269386)"><path d="M0.64 -0.1 C26.15 1, 127.51 5.43, 152.81 6.89 M-0.48 -1.2 C24.95 0, 126.82 6.63, 152.2 7.97" stroke="#000000" stroke-width="1" fill="none"></path></g><g transform="translate(440.62049323058613 243.06663554944902) rotate(0 76.16325553272713 3.3858261975269386)"><path d="M123.28 17.62 C129.94 14.43, 140.92 13, 151 6.11 M124.18 16.7 C131.35 12.97, 139.53 10.97, 152.1 8.21" stroke="#000000" stroke-width="1" fill="none"></path></g><g transform="translate(440.62049323058613 243.06663554944902) rotate(0 76.16325553272713 3.3858261975269386)"><path d="M124.5 -2.87 C130.88 -0.36, 141.52 3.88, 151 6.11 M125.4 -3.78 C132.38 -1.65, 140.21 2.22, 152.1 8.21" stroke="#000000" stroke-width="1" fill="none"></path></g></g><g stroke-linecap="round"><g transform="translate(439.46777309090317 309.92440365106677) rotate(0 74.08945603484426 11.448516669524679)"><path d="M0.86 -0.97 C25.64 2.83, 123.49 18.43, 148.33 22.47 M-0.15 1.14 C24.47 5.15, 122.21 20.52, 147.18 23.87" stroke="#000000" stroke-width="1" fill="none"></path></g><g transform="translate(439.46777309090317 309.92440365106677) rotate(0 74.08945603484426 11.448516669524679)"><path d="M116.18 29.28 C125.37 29.97, 134.7 24.86, 146.77 23.39 M117.84 30.45 C123.98 27.94, 130.74 27.64, 147.28 24.14" stroke="#000000" stroke-width="1" fill="none"></path></g><g transform="translate(439.46777309090317 309.92440365106677) rotate(0 74.08945603484426 11.448516669524679)"><path d="M119.17 8.98 C127.49 15.21, 136 15.62, 146.77 23.39 M120.83 10.15 C126.2 12.41, 132.25 16.87, 147.28 24.14" stroke="#000000" stroke-width="1" fill="none"></path></g></g><g transform="translate(501.7146606337885 439.2508204130346) rotate(0 8.5 13)"><text x="0" y="18" font-family="Virgil, Segoe UI Emoji" font-size="20px" fill="#000000" text-anchor="start" style="white-space: pre;" direction="ltr">...</text></g><g stroke-linecap="round"><g transform="translate(353.01376261467317 580.8136364765869) rotate(0 47.53722032996643 1.101387930353951)"><path d="M1.14 1.09 C16.81 1.34, 79.26 2.06, 94.8 1.96 M0.27 0.62 C15.75 0.5, 78.46 0.12, 94 0.27" stroke="#000000" stroke-width="1" fill="none"></path></g></g><g stroke-linecap="round" transform="translate(601.2299471804765 543.9954546584052) rotate(0 74.54545454545462 36.81818181818184)"><path d="M-0.14 0.24 C51.2 -0.88, 102.65 -1.62, 150.83 1.56 M-0.47 0.62 C42.74 -1.82, 85.73 -0.19, 149.17 -0.88 M148.02 -0.96 C148.25 23.79, 147.81 51.14, 149.19 75.26 M149.94 0.79 C150.58 17.98, 149.09 35, 148.84 73.02 M149.08 72.07 C113.26 73.18, 77.37 75.16, -1.35 72.1 M148.96 73.77 C110.04 75.55, 70.3 73.99, -0.37 74.14 M-1.81 74.74 C1.66 53.94, -0.22 36.73, 0.03 1.08 M0.93 73.72 C0.4 54.49, 1.65 35.17, 0.32 -0.52" stroke="#000000" stroke-width="1" fill="none"></path></g><g transform="translate(606.2299471804765 554.813636476587) rotate(0 69.5 26)"><text x="69.5" y="18" font-family="Virgil, Segoe UI Emoji" font-size="20px" fill="#000000" text-anchor="middle" style="white-space: pre;" direction="ltr">Map Storage </text><text x="69.5" y="44" font-family="Virgil, Segoe UI Emoji" font-size="20px" fill="#000000" text-anchor="middle" style="white-space: pre;" direction="ltr">N</text></g><g stroke-linecap="round"><g transform="translate(444.07865364963527 605.0207594099313) rotate(0 70.87127544495695 0.2252207932666579)"><path d="M0.54 0.38 C23.81 0.36, 116.72 1.21, 140 1.01 M-0.64 -0.46 C22.99 -0.29, 119.06 -0.67, 142.38 -0.58" stroke="#000000" stroke-width="1" fill="none"></path></g><g transform="translate(444.07865364963527 605.0207594099313) rotate(0 70.87127544495695 0.2252207932666579)"><path d="M114.84 8.65 C125.12 5.55, 131.43 4.57, 141.51 -1.23 M114.35 9.96 C124 5.93, 134.21 2.25, 142.38 0.32" stroke="#000000" stroke-width="1" fill="none"></path></g><g transform="translate(444.07865364963527 605.0207594099313) rotate(0 70.87127544495695 0.2252207932666579)"><path d="M114.83 -11.87 C125.31 -8.18, 131.63 -2.36, 141.51 -1.23 M114.34 -10.56 C123.9 -7.23, 134.11 -3.56, 142.38 0.32" stroke="#000000" stroke-width="1" fill="none"></path></g></g><g stroke-linecap="round" transform="translate(321.90232132828964 100.81205463421412) rotate(0 78 31)"><path d="M-0.11 1.33 C52.9 -0.41, 103.25 -2.03, 154.85 1.05 M-0.09 -0.97 C40.85 0.43, 83.04 0.46, 156.48 0.11 M154.16 -1.35 C156.54 17.21, 155.54 34.9, 156.94 60.32 M155.82 -0.13 C157.33 18.59, 156.18 37.38, 156.08 62.39 M155.9 62.54 C116.01 60.27, 78.79 62.77, -0.1 63.73 M155.37 62.25 C94.4 60.67, 33.79 61.91, -0.04 62.16 M0.5 62.03 C-1.02 45.64, 1.11 32.55, 1.94 0.65 M-0.18 61.63 C0.03 45.65, -0.99 31.46, -1 0.2" stroke="#000000" stroke-width="1" fill="none"></path></g><g transform="translate(326.90232132828964 105.81205463421412) rotate(0 73 26)"><text x="73" y="18" font-family="Virgil, Segoe UI Emoji" font-size="20px" fill="#000000" text-anchor="middle" style="white-space: pre;" direction="ltr">Worker </text><text x="73" y="44" font-family="Virgil, Segoe UI Emoji" font-size="20px" fill="#000000" text-anchor="middle" style="white-space: pre;" direction="ltr">Manager</text></g><g transform="translate(392.2182498489565 174.80790469139478) rotate(0 10.5 13)"><text x="0" y="18" font-family="Virgil, Segoe UI Emoji" font-size="20px" fill="#000000" text-anchor="start" style="white-space: pre;" direction="ltr">W1</text></g><g transform="translate(387.60736929022414 228.98575125649884) rotate(0 15 13)"><text x="0" y="18" font-family="Virgil, Segoe UI Emoji" font-size="20px" fill="#000000" text-anchor="start" style="white-space: pre;" direction="ltr">W2</text></g><g transform="translate(388.7454512457873 289.53807907875046) rotate(0 15 13)"><text x="0" y="18" font-family="Virgil, Segoe UI Emoji" font-size="20px" fill="#000000" text-anchor="start" style="white-space: pre;" direction="ltr">W2</text></g><g transform="translate(387.5927311061039 593.8561959550794) rotate(0 14.5 13)"><text x="0" y="18" font-family="Virgil, Segoe UI Emoji" font-size="20px" fill="#000000" text-anchor="start" style="white-space: pre;" direction="ltr">WN</text></g><g stroke-linecap="round" transform="translate(221.6156691758631 69.68861086277138) rotate(0 49 64.55232782225163)"><path d="M0.39 0.25 C28.05 0.84, 53.48 -0.45, 96.88 0.13 M0.77 0.35 C31.97 -0.38, 63.03 -0.75, 97.25 -0.09 M99.59 0.5 C97.67 39.99, 96.25 76.17, 97.3 129.9 M98.48 -0.78 C98.41 28.48, 99.22 57.05, 98.21 129.24 M97.6 129.12 C77.14 129.15, 56.83 127.28, 0.83 129.89 M98.53 129.18 C63.7 129.68, 28.45 129.76, -0.73 128.6 M-1.25 130.35 C1.14 80.66, -0.9 30.04, -1.63 -0.88 M-0.23 129.71 C-0.67 88.92, -0.46 46.94, -0.99 0.86" stroke="#000000" stroke-width="1" fill="none"></path></g><g transform="translate(226.6156691758631 108.24093868502301) rotate(0 44 26)"><text x="44" y="18" font-family="Virgil, Segoe UI Emoji" font-size="20px" fill="#000000" text-anchor="middle" style="white-space: pre;" direction="ltr">Chan </text><text x="44" y="44" font-family="Virgil, Segoe UI Emoji" font-size="20px" fill="#000000" text-anchor="middle" style="white-space: pre;" direction="ltr">recive</text></g><g stroke-linecap="round"><g transform="translate(78.19243450994963 503.31982185166225) rotate(0 93.30832812961506 -143.32025480693497)"><path d="M-0.35 -0.89 C30.98 -48.79, 155.58 -240.31, 186.97 -287.9 M1.66 1.26 C32.92 -46.43, 154.99 -238.31, 186.01 -286.54" stroke="#000000" stroke-width="1" fill="none"></path></g><g transform="translate(78.19243450994963 503.31982185166225) rotate(0 93.30832812961506 -143.32025480693497)"><path d="M177.99 -257.3 C180.41 -261.84, 184.32 -270.4, 187.26 -285.05 M180.27 -258.04 C181.74 -269.15, 184.93 -279.34, 185.78 -286.93" stroke="#000000" stroke-width="1" fill="none"></path></g><g transform="translate(78.19243450994963 503.31982185166225) rotate(0 93.30832812961506 -143.32025480693497)"><path d="M160.7 -268.35 C166.79 -270.47, 174.42 -276.66, 187.26 -285.05 M162.98 -269.1 C170.78 -276.17, 180.41 -282.25, 185.78 -286.93" stroke="#000000" stroke-width="1" fill="none"></path></g></g><g transform="translate(51.01308850276928 300.45439991684873) rotate(303.94906682554245 42 13)"><text x="0" y="18" font-family="Virgil, Segoe UI Emoji" font-size="20px" fill="#000000" text-anchor="start" style="white-space: pre;" direction="ltr">Get Req</text></g></svg>